<svg xmlns="http://www.w3.org/2000/svg" viewBox="0 0 258.39 326.54"><defs><style>.cls-1,.cls-16{fill:#f39f7d;}.cls-14,.cls-2{fill:#fff;}.cls-3{fill:#ffc542;}.cls-4{fill:#e15235;}.cls-5{fill:#fda295;}.cls-6{fill:#4c180c;}.cls-7{fill:#fffeff;}.cls-12,.cls-15,.cls-17,.cls-8,.cls-9{fill:none;}.cls-12,.cls-13,.cls-16,.cls-17,.cls-8,.cls-9{stroke:#661b04;}.cls-12,.cls-13,.cls-15,.cls-16,.cls-17,.cls-8,.cls-9{stroke-linecap:round;stroke-linejoin:round;}.cls-8{stroke-width:5px;}.cls-9{stroke-width:4.64px;}.cls-10{fill:#fecc0b;}.cls-11{fill:#f4908b;}.cls-12,.cls-13{stroke-width:4.34px;}.cls-14{opacity:0.81;}.cls-15{stroke:#fff;}.cls-15,.cls-17{stroke-width:4.06px;}.cls-16{stroke-width:5.1px;}</style></defs><title>一夜暴富</title><g id="图层_2" data-name="图层 2"><g id="图层_5" data-name="图层 5"><path class="cls-1" d="M131.73,46.31c-.48,0-1.95,1.11-1.58,3.24-.48.16-1.7-1.15-.91-4.1s2.18-7.75-1.85-10.6c0,0,2.76,3.45-1.82,8.14-3.92,4.71-8.91,9.7-4,15.25,1.13,1.83,5.14,3.52,8.37,2.73,3.3-1.25,7.11-4.77,3.88-9C131.42,48.64,131.21,48.09,131.73,46.31ZM83.46,91.62a12.08,12.08,0,0,0-.85,1.26,13,13,0,0,0-1.77,6.61,12.69,12.69,0,0,0,12.55,12.83c.3,0,.58,0,.86,0s.42,0,.64,0a9.11,9.11,0,0,0,7.35-3.74,0,0,0,0,0,0,0,12.9,12.9,0,0,0,3.68-9.07A12.69,12.69,0,0,0,93.39,86.65a12.46,12.46,0,0,0-9.91,4.95Zm-41-29.28a.13.13,0,0,1,0-.05,62.5,62.5,0,0,1,6.78-8.12A100.54,100.54,0,0,1,72,36.94c27.4-15.25,54.19-14,54.19-14s26.62-1.2,53.93,13.9a101.53,101.53,0,0,1,23,17.37,65.39,65.39,0,0,1,7.1,8.57h0a0,0,0,0,0,0,0,70.13,70.13,0,0,1,8.28,16.28,93.9,93.9,0,0,0,4.13,9.78c3,6.24,6.34,11.63,10.23,20.11a93.11,93.11,0,0,1,6.38,17.8l-.45.1c-36.1-19.66-60.94-13.79-86.75-8.36-19,4-25.61,2.84-25.61,2.84s-6.58,1.17-25.61-2.84C74.77,113,49.67,107,13,127.47a90.93,90.93,0,0,1,6.55-18.53c3.89-8.48,7.18-13.87,10.22-20.11a96.19,96.19,0,0,0,4.12-9.78A70.31,70.31,0,0,1,42.44,62.34ZM169.77,92.88A12.46,12.46,0,0,0,159,86.65a12.69,12.69,0,0,0-12.55,12.84,12.91,12.91,0,0,0,3.62,9,.09.09,0,0,0,.06.06,9.09,9.09,0,0,0,7.36,3.76c.23,0,.43,0,.64,0s.57,0,.87,0a12.69,12.69,0,0,0,12.55-12.83A13,13,0,0,0,169.77,92.88Z"/><path class="cls-2" d="M238.83,126.84l.45-.1A50.57,50.57,0,0,1,240.62,138a58,58,0,0,1-1.16,11.43c-3.73,19.18-14.37,38.62-42.58,49.68-13.81,5.41-31.85,8.83-55.36,9.2-4.87.06-10,0-15.32-.18-5.35.19-10.47.24-15.34.18-23.51-.37-41.55-3.79-55.36-9.21-28.19-11.06-38.84-30.49-42.58-49.67a52.31,52.31,0,0,1,0-22c36.72-20.43,61.82-14.48,87.91-9,19,4,25.61,2.84,25.61,2.84s6.57,1.17,25.61-2.84C177.89,113.05,202.73,107.18,238.83,126.84Zm-28.66,25.33c0-7.83-8.52-14.16-19-14.16s-19,6.33-19,14.16,8.53,14.16,19,14.16S210.17,160,210.17,152.17Zm-48.14-11H99.44a31.3,31.3,0,1,0,62.59,0Zm-85.28,11c0-7.83-8.51-14.16-19-14.16s-19,6.33-19,14.16,8.52,14.16,19,14.16S76.75,160,76.75,152.17Z"/><path class="cls-3" d="M71.7,36.4l.31.54A100.54,100.54,0,0,0,49.25,54.17a62.5,62.5,0,0,0-6.78,8.12l0,0c-6-3.6-9.7-9.85-11.8-17,19-.76,30.5-17.36,30.5-17.36A67.23,67.23,0,0,0,71.7,36.4Z"/><path class="cls-3" d="M39.71,4.31q5.15,6.44,9.48,11.31c-5.29,9.5-20.32,10.88-21,10.94,0-8.58,1.37-16.3,2.87-20.37C32.69,1.83,37.47,1.51,39.71,4.31Z"/><path class="cls-3" d="M28.22,26.56c.65-.06,15.68-1.44,21-10.94,4.67,5.28,8.63,9.3,11.93,12.37,0,0-11.5,16.6-30.5,17.36A66.12,66.12,0,0,1,28.22,26.56Z"/><path class="cls-3" d="M192,27.5c1,1.24,15.41,18.73,30.18,16.76l.16,0c-2,7.74-5.72,14.61-12.1,18.46h0l0,0h0a65.39,65.39,0,0,0-7.1-8.57,101.53,101.53,0,0,0-23-17.37h0S183.71,35.51,192,27.5Z"/><path class="cls-4" d="M249.88,73.4c.3,8.11-17.28,19.07-27.21,15.43a93.9,93.9,0,0,1-4.13-9.78,70.13,70.13,0,0,0-8.28-16.28h0c.7.44,9.57,5.69,36,7.11A3.77,3.77,0,0,1,249.88,73.4Z"/><path class="cls-1" d="M240.62,138c47.31,49.37-30.45,92.71-30.45,92.71l-1.26.15a133.8,133.8,0,0,0-6.06-19.05,110.6,110.6,0,0,0-6-12.7c28.21-11.06,38.85-30.5,42.58-49.68A58,58,0,0,0,240.62,138Z"/><path class="cls-3" d="M224.27,26.56a68.42,68.42,0,0,1-1.9,17.74l-.16,0C207.44,46.23,193,28.74,192,27.5c3.07-2.95,6.79-6.82,11.2-11.88C210.23,25.7,223.66,26.53,224.27,26.56Z"/><path class="cls-3" d="M221.29,6.19c1.49,4,2.87,11.77,3,20.37-.61,0-14-.86-21-10.94,2.85-3.25,6-7,9.44-11.31C214.91,1.51,219.69,1.83,221.29,6.19Z"/><path class="cls-4" d="M208.91,230.87c2.58,11,4,23.84,1.82,36.79l-1.49-.25s-19.79,11.48-50.23,3.26c-20.26-5.45-21.3-31.23-19.74-47.86l.46,0C185.15,228.59,202.5,212,202.5,212l.35-.14A133.8,133.8,0,0,1,208.91,230.87Zm-10.73,7.37A5.78,5.78,0,1,0,192.4,244,5.79,5.79,0,0,0,198.18,238.24ZM186.63,259.4a5.78,5.78,0,1,0-5.78,5.79A5.77,5.77,0,0,0,186.63,259.4ZM165,240.22a5.78,5.78,0,1,0-5.77,5.77A5.77,5.77,0,0,0,165,240.22Z"/><path class="cls-1" d="M129.58,306.24a38.43,38.43,0,0,1-10.24,1.85l.12,2.65c0,2.61-.85,7.49-7.42,10.33-2.49,1.09-17,2.13-27.46.7C75,320.46,66.74,320,57.63,306.24c-6-9-6.05-12.18-12.3-29.69a73.87,73.87,0,0,1-2.18-9.14s19.8,11.48,50.24,3.26c20.32-5.47,21.29-31.4,19.71-48a116.77,116.77,0,0,0-2.24-14.25v-.06c4.87.06,10,0,15.34-.18,5.35.19,10.45.24,15.32.18v.06a118,118,0,0,0-2.25,14.43c-1.56,16.63-.52,42.41,19.74,47.86,30.44,8.22,50.23-3.26,50.23-3.26l1.49.25a69,69,0,0,1-2.16,9.21c-4.46,21-5,21.26-10.55,31.44-7.84,14.54-18.78,13.48-28.38,14.77-10.44,1.44-23.36,1.29-27.45-.68C136.16,319.49,129.58,308.85,129.58,306.24Z"/><path class="cls-5" d="M191.15,138c10.5,0,19,6.33,19,14.16s-8.52,14.16-19,14.16-19-6.34-19-14.16S180.64,138,191.15,138Z"/><path class="cls-2" d="M202.85,211.82l-.35.14s-17.35,16.63-62.77,10.89l-.46,0a118,118,0,0,1,2.25-14.43v-.06c23.51-.37,41.55-3.79,55.36-9.2A110.6,110.6,0,0,1,202.85,211.82Z"/><path class="cls-2" d="M192.4,232.45a5.78,5.78,0,1,1-5.77,5.79A5.79,5.79,0,0,1,192.4,232.45Zm2,7.77v-4h-4v4Z"/><rect class="cls-4" x="190.42" y="236.24" width="3.98" height="3.98"/><path class="cls-2" d="M180.85,253.64a5.78,5.78,0,1,1-5.77,5.76A5.77,5.77,0,0,1,180.85,253.64Zm2,7.75v-4h-4v4Z"/><rect class="cls-4" x="178.86" y="257.42" width="3.98" height="3.97"/><path class="cls-6" d="M157.5,93.4a9.47,9.47,0,0,1,.64,18.89,12.32,12.32,0,0,1-8-3.73.09.09,0,0,1-.06-.06,9.45,9.45,0,0,1-1.82-5.63A9.35,9.35,0,0,1,157.5,93.4Zm3.3,7.14a.6.6,0,1,0-1.2,0,.6.6,0,1,0,1.2,0Zm-3.3,1.67a1.69,1.69,0,1,0-1.68,1.72A1.71,1.71,0,0,0,157.5,102.21Z"/><path class="cls-2" d="M159.26,234.45a5.77,5.77,0,1,1-5.78,5.77A5.77,5.77,0,0,1,159.26,234.45Zm2,7.75v-4h-4v4Z"/><path class="cls-4" d="M99.44,141.12H162a31.14,31.14,0,0,1-6.26,18.8c-28.45-18.8-50.9-1.18-50.9-1.18A31.11,31.11,0,0,1,99.44,141.12Z"/><rect class="cls-4" x="157.26" y="238.24" width="3.98" height="3.97"/><ellipse class="cls-7" cx="160.2" cy="100.54" rx="0.6" ry="0.61"/><path d="M158.14,112.29c-.21,0-.41,0-.64,0a9.09,9.09,0,0,1-7.36-3.76A12.32,12.32,0,0,0,158.14,112.29Z"/><path class="cls-7" d="M155.82,100.49a1.72,1.72,0,1,1-1.69,1.72A1.71,1.71,0,0,1,155.82,100.49Z"/><path class="cls-5" d="M155.77,159.92a31.31,31.31,0,0,1-50.9-1.18S127.32,141.12,155.77,159.92Z"/><path class="cls-4" d="M133.86,52c3.23,4.24-.58,7.76-3.88,9-3.23.79-7.24-.9-8.37-2.73-5-5.55,0-10.54,4-15.25,4.58-4.69,1.82-8.14,1.82-8.14,4,2.85,2.64,7.63,1.85,10.6s.43,4.26.91,4.1c-.37-2.13,1.1-3.24,1.58-3.24C131.21,48.09,131.42,48.64,133.86,52Z"/><path class="cls-4" d="M113.1,222.63c1.58,16.64.61,42.57-19.71,48-30.44,8.22-50.24-3.26-50.24-3.26-3.75-21.66,2-42.92,6.85-55.81C50,211.6,67.67,228.37,113.1,222.63Z"/><path class="cls-2" d="M110.86,208.38a116.77,116.77,0,0,1,2.24,14.25c-45.43,5.74-63.1-11-63.1-11a109.37,109.37,0,0,1,5.5-12.49c13.81,5.42,31.85,8.84,55.36,9.21Z"/><path class="cls-6" d="M104.14,102.87a9.39,9.39,0,0,1-1.88,5.69,0,0,0,0,1,0,0,12.35,12.35,0,0,1-8,3.71,9.45,9.45,0,1,1,9.89-9.42Zm-5.88-.66a1.69,1.69,0,1,0-1.68,1.72A1.71,1.71,0,0,0,98.26,102.21Zm-4.87-1.67a.62.62,0,0,0-.6-.61.61.61,0,0,0-.59.61.6.6,0,0,0,.59.62A.61.61,0,0,0,93.39,100.54Z"/><path d="M102.24,108.58a9.11,9.11,0,0,1-7.35,3.74c-.22,0-.43,0-.64,0A12.35,12.35,0,0,0,102.24,108.58Z"/><path class="cls-7" d="M96.58,100.49a1.72,1.72,0,1,1-1.69,1.72A1.71,1.71,0,0,1,96.58,100.49Z"/><ellipse class="cls-7" cx="92.79" cy="100.54" rx="0.6" ry="0.61"/><path class="cls-5" d="M57.73,138c10.51,0,19,6.33,19,14.16s-8.51,14.16-19,14.16-19-6.34-19-14.16S47.22,138,57.73,138Z"/><path class="cls-4" d="M42.42,62.32l0,0a70.31,70.31,0,0,0-8.6,16.71,96.19,96.19,0,0,1-4.12,9.78C19.79,92.45,2.22,81.51,2.5,73.4a3.8,3.8,0,0,1,3.63-3.53C32.67,68.45,41.78,62.74,42.42,62.32Z"/><path class="cls-8" d="M55.5,199.11A109.37,109.37,0,0,0,50,211.6c-4.85,12.89-10.6,34.15-6.85,55.81a73.87,73.87,0,0,0,2.18,9.14c6.25,17.51,6.34,20.67,12.3,29.69C66.74,320,75,320.46,84.58,321.77c10.43,1.43,25,.39,27.46-.7,6.57-2.84,7.42-7.72,7.42-10.33"/><path class="cls-8" d="M71.7,36.4A67.23,67.23,0,0,1,61.12,28c-3.3-3.07-7.26-7.09-11.93-12.37q-4.34-4.89-9.48-11.31c-2.24-2.8-7-2.48-8.62,1.88-1.5,4.07-2.83,11.79-2.87,20.37a66.12,66.12,0,0,0,2.4,18.79c2.1,7.12,5.8,13.37,11.8,17l0,0h0"/><path class="cls-8" d="M42.47,62.29l0,0c-.64.42-9.75,6.13-36.29,7.55A3.8,3.8,0,0,0,2.5,73.4c-.28,8.11,17.29,19,27.22,15.43"/><path class="cls-8" d="M28.2,26.56h0c.65-.06,15.68-1.44,21-10.94"/><path class="cls-8" d="M61.12,28s-11.5,16.6-30.5,17.36"/><path class="cls-8" d="M126.47,121.32s-6.58,1.17-25.61-2.84C74.77,113,49.67,107,13,127.47a0,0,0,0,1,0,0"/><path class="cls-8" d="M126.47,121.32s6.57,1.17,25.61-2.84c25.81-5.43,50.65-11.3,86.75,8.36"/><path class="cls-8" d="M94.25,112.29c-.28,0-.56,0-.86,0A12.69,12.69,0,0,1,80.84,99.49a13,13,0,0,1,1.77-6.61,12.08,12.08,0,0,1,.85-1.26"/><path class="cls-8" d="M83.48,91.6a12.46,12.46,0,0,1,9.91-4.95,12.69,12.69,0,0,1,12.55,12.84,12.9,12.9,0,0,1-3.68,9.07"/><path class="cls-8" d="M101.54,73.13s-.37-2.89-3.28-1"/><path class="cls-8" d="M110.86,208.38a116.77,116.77,0,0,1,2.24,14.25c1.58,16.64.61,42.57-19.71,48-30.44,8.22-50.24-3.26-50.24-3.26"/><polyline class="cls-8" points="129.58 282.21 125.94 284.24 121.19 286.89"/><polyline class="cls-8" points="121.96 280.45 125.94 284.24 129.58 287.68"/><path class="cls-8" d="M50,211.6s17.67,16.77,63.1,11"/><path class="cls-8" d="M83.48,91.6l0,0a5.63,5.63,0,0,1-6.71,1.16"/><path class="cls-8" d="M196.87,199.11h0a110.6,110.6,0,0,1,6,12.7,133.8,133.8,0,0,1,6.06,19.05c2.58,11,4,23.84,1.82,36.79a69,69,0,0,1-2.16,9.21c-4.46,21-5,21.26-10.55,31.44-7.84,14.54-18.78,13.48-28.38,14.77-10.44,1.44-23.36,1.29-27.45-.68-6-2.91-12.61-13.55-12.61-16.16"/><path class="cls-8" d="M210.23,62.74a65.39,65.39,0,0,0-7.1-8.57,101.53,101.53,0,0,0-23-17.37C152.82,21.7,126.2,22.9,126.2,22.9S99.41,21.69,72,36.94A100.54,100.54,0,0,0,49.25,54.17a62.5,62.5,0,0,0-6.78,8.12.13.13,0,0,0,0,.05,70.31,70.31,0,0,0-8.6,16.71,96.19,96.19,0,0,1-4.12,9.78c-3,6.24-6.33,11.63-10.22,20.11A90.93,90.93,0,0,0,13,127.47a52.31,52.31,0,0,0,0,22c3.74,19.18,14.39,38.61,42.58,49.67,13.81,5.42,31.85,8.84,55.36,9.21,4.87.06,10,0,15.34-.18,5.35.19,10.45.24,15.32.18,23.51-.37,41.55-3.79,55.36-9.2,28.21-11.06,38.85-30.5,42.58-49.68A58,58,0,0,0,240.62,138a50.57,50.57,0,0,0-1.34-11.27,93.11,93.11,0,0,0-6.38-17.8c-3.89-8.48-7.2-13.87-10.23-20.11a93.9,93.9,0,0,1-4.13-9.78,70.13,70.13,0,0,0-8.28-16.28,0,0,0,0,1,0,0"/><path class="cls-8" d="M210.26,62.76h0s0,0,0,0"/><path class="cls-8" d="M180.13,36.79s3.58-1.28,11.9-9.29c3.07-2.95,6.79-6.82,11.2-11.88,2.85-3.25,6-7,9.44-11.31,2.24-2.8,7-2.48,8.62,1.88,1.49,4,2.87,11.77,3,20.37a68.42,68.42,0,0,1-1.9,17.74c-2,7.74-5.72,14.61-12.1,18.46"/><path class="cls-8" d="M210.23,62.74h0l0,0h0c.7.44,9.57,5.69,36,7.11a3.77,3.77,0,0,1,3.62,3.53c.3,8.11-17.28,19.07-27.21,15.43"/><path class="cls-8" d="M224.28,26.56h0c-.61,0-14-.86-21-10.94h0"/><path class="cls-8" d="M192,27.43a.18.18,0,0,0,.06.07c1,1.24,15.41,18.73,30.18,16.76"/><path class="cls-8" d="M158.14,112.29c.29,0,.57,0,.87,0a12.69,12.69,0,0,0,12.55-12.83,13,13,0,0,0-1.79-6.61A12.46,12.46,0,0,0,159,86.65a12.69,12.69,0,0,0-12.55,12.84,12.91,12.91,0,0,0,3.62,9"/><path class="cls-8" d="M150.08,108.5a.09.09,0,0,0,.06.06"/><path class="cls-8" d="M152.48,75.93s.39-2.89,3.29-1"/><path class="cls-8" d="M141.52,208.38a118,118,0,0,0-2.25,14.43c-1.56,16.63-.52,42.41,19.74,47.86,30.44,8.22,50.23-3.26,50.23-3.26"/><path class="cls-8" d="M202.5,212s-17.35,16.63-62.77,10.89"/><path class="cls-8" d="M168.92,91.6a5.6,5.6,0,0,0,6.71,1.18"/><path class="cls-8" d="M82.4,128.66s6.9-3.36,6.9,1.12"/><path class="cls-8" d="M174.38,126.69s1.41,0,1.89,1"/><path class="cls-8" d="M102.72,305.3a39.73,39.73,0,0,0,26.86.94,42.24,42.24,0,0,0,12.54-6.66"/><path class="cls-8" d="M104.87,158.74A31.29,31.29,0,0,0,162,141.12H99.44A31.11,31.11,0,0,0,104.87,158.74Z"/><path class="cls-8" d="M104.87,158.74s22.45-17.62,50.9,1.18"/><path class="cls-8" d="M210.17,230.72s77.76-43.34,30.45-92.71"/><path class="cls-9" d="M105.93,99.48a12.55,12.55,0,1,1-25.1,0,12.94,12.94,0,0,1,1.79-6.6,12.46,12.46,0,0,1,10.76-6.23A12.69,12.69,0,0,1,105.93,99.48Z"/><path class="cls-9" d="M146.45,99.48a12.56,12.56,0,1,0,25.11,0,12.94,12.94,0,0,0-1.79-6.6A12.46,12.46,0,0,0,159,86.65,12.69,12.69,0,0,0,146.45,99.48Z"/><path class="cls-10" d="M129.64,212.08a20.13,20.13,0,0,0-3.35-11.24c8.2-1.35,10-3.89,20.08-4.71,12.64-.85,12.76,15.47,9.82,23.32s-10.08,19.65-31.44,24.32c-1.47.28-2.9.55-4.29.79l-14,.82-.17-2.66-15.65,1.2.34,2.37-.53,0-3.15.09a41.9,41.9,0,0,1-16.65-6.07,11,11,0,0,0,3.61-8c.06-2.6-1.64-7.37-5.26-5.82-2.85,1.27-3.13,2.2-5.4,3.43a8.22,8.22,0,0,0-6.65-1.26l-.12,0-.06-.24c-11.71-13.69-5-27.77-.65-31.83,9.19-6.36,24,3.31,24,3.31l.32.25a26.55,26.55,0,0,0-4.87,9.87l-.24.35C84.19,216.7,101.83,223.7,129.64,212.08Z"/><polygon class="cls-11" points="154.77 262.98 154.31 277.8 112.23 278.33 112.23 278.26 112.23 267.08 149.79 264.35 149.79 263.71 154.77 262.98"/><polygon class="cls-11" points="120.46 244.56 151.93 242.72 151.93 252.12 149.79 252.25 107.03 255.08 106.98 254.32 106.42 245.38 120.46 244.56"/><polygon class="cls-11" points="149.79 263.71 149.79 264.35 112.23 267.08 112.23 265.01 100.72 265.53 100.72 255.5 107.03 255.08 149.79 252.25 149.79 263.71"/><path class="cls-10" d="M126.29,200.84a20.13,20.13,0,0,1,3.35,11.24c-27.81,11.62-45.45,4.62-54.32-1.61l.24-.35a26.55,26.55,0,0,1,4.87-9.87,28.6,28.6,0,0,1,22.78-10.62C112.87,189.63,121.68,193.87,126.29,200.84Z"/><polygon class="cls-2" points="112.23 267.08 112.23 278.26 112.23 278.33 99.44 278.51 99.44 278.26 98.38 267.14 98.23 265.65 100.72 265.53 112.23 265.01 112.23 267.08"/><polygon class="cls-2" points="106.98 254.32 107.03 255.08 100.72 255.5 100.72 254.14 92.14 254.54 91.02 246.84 90.94 246.29 106.42 245.38 106.98 254.32"/><polygon class="cls-2" points="106.25 242.72 106.42 245.38 90.94 246.29 90.6 243.92 106.25 242.72"/><polygon class="cls-2" points="100.72 255.5 100.72 265.53 98.23 265.65 98.38 267.14 88.29 267.65 88.29 267.59 87.28 256.72 87.1 254.78 92.14 254.54 100.72 254.14 100.72 255.5"/><polygon class="cls-11" points="99.44 278.26 99.44 278.51 94.31 278.57 54.96 282.58 54.96 270.72 54.96 269.33 88.29 267.65 98.38 267.14 99.44 278.26"/><path class="cls-11" d="M91,246.84l1.12,7.7-5,.24.18,1.94-.7.06H47v-9.2l5.32-.15a12.81,12.81,0,0,0,4.67-.15l30.3-.87C88.47,246.6,89.72,246.73,91,246.84Z"/><polygon class="cls-11" points="88.29 267.59 88.29 267.65 54.96 269.33 54.96 270.72 46.31 270.72 46.31 256.78 46.97 256.78 86.58 256.78 87.28 256.72 88.29 267.59"/><path class="cls-10" d="M49.65,238c3.24.91,9.11,1.15,16.06-5.1A6.15,6.15,0,0,0,63.56,230c2.27-1.23,2.55-2.16,5.4-3.43,3.62-1.55,5.32,3.22,5.26,5.82a11,11,0,0,1-3.61,8,17.68,17.68,0,0,1-3.1,2.37c-4.46,2.61-7.77,4-10.55,4.57l-4.67.15a20,20,0,0,1-5.2-1.68c-5.93-2.68-5.38-8.05-4.49-9.78,2-2.8,7.38-1.49,7.38-1.49l.12,0a8.17,8.17,0,0,0-.42,3.39Z"/><path class="cls-10" d="M63.56,230a6.15,6.15,0,0,1,2.15,2.94c-6.95,6.25-12.82,6-16.06,5.1l0-.12a8.17,8.17,0,0,1,.42-3.39,8.8,8.8,0,0,1,5.58-5.45c.35-.12.74-.22,1.11-.31l.12,0A8.22,8.22,0,0,1,63.56,230Z"/><path class="cls-12" d="M75.56,210.12a26.55,26.55,0,0,1,4.87-9.87,28.6,28.6,0,0,1,22.78-10.62c9.66,0,18.47,4.24,23.08,11.21a20.13,20.13,0,0,1,3.35,11.24"/><path class="cls-12" d="M68.41,204.12a31.27,31.27,0,0,0,6.91,6.35c8.87,6.23,26.51,13.23,54.32,1.61,3.27-1.36,6.66-3,10.21-4.89"/><path class="cls-12" d="M107,246.48c4.09-.4,8.54-1,13.48-1.92,1.39-.24,2.82-.51,4.29-.79,21.36-4.67,28.49-16.46,31.44-24.32s2.82-24.17-9.82-23.32c-10.07.82-11.88,3.36-20.08,4.71-.11,0-.23,0-.35.06"/><path class="cls-12" d="M70.61,240.34a41.9,41.9,0,0,0,16.65,6.07c1.21.19,2.46.32,3.76.43"/><path class="cls-12" d="M80.11,200s-14.84-9.67-24-3.31c-4.33,4.06-11.06,18.14.65,31.83"/><path class="cls-12" d="M56.91,228.73A8.22,8.22,0,0,1,63.56,230a6.15,6.15,0,0,1,2.15,2.94"/><path class="cls-12" d="M55.68,229.07c.35-.12.74-.22,1.11-.31l.12,0"/><path class="cls-12" d="M49.68,237.91a8.17,8.17,0,0,1,.42-3.39,8.8,8.8,0,0,1,5.58-5.45"/><path class="cls-12" d="M47,236.88A9.73,9.73,0,0,0,49.65,238c3.24.91,9.11,1.15,16.06-5.1.82-.73,1.64-1.55,2.49-2.47"/><path class="cls-12" d="M50,234.48s-5.34-1.31-7.38,1.49c-.89,1.73-1.44,7.1,4.49,9.78a20,20,0,0,0,5.2,1.68,12.81,12.81,0,0,0,4.67-.15c2.78-.55,6.09-2,10.55-4.57a17.68,17.68,0,0,0,3.1-2.37,11,11,0,0,0,3.61-8c.06-2.6-1.64-7.37-5.26-5.82-2.85,1.27-3.13,2.2-5.4,3.43l-.09.06"/><polyline class="cls-12" points="86.58 256.78 46.97 256.78 46.97 247.58 52.29 247.43 56.96 247.28 87.26 246.41 90.41 246.32 90.94 246.29 106.42 245.38 120.46 244.56 151.93 242.72 151.93 252.12 149.79 252.25 107.03 255.08 100.72 255.5 100.17 255.53"/><polyline class="cls-12" points="106.98 254.32 106.42 245.38 106.25 242.72 90.6 243.92 90.94 246.29 91.02 246.84 92.14 254.54 92.17 254.78"/><polyline class="cls-12" points="88.29 267.59 87.28 256.72 87.1 254.78 92.14 254.54 100.72 254.14 100.72 255.5 100.72 265.53 100.72 265.56"/><polyline class="cls-12" points="149.79 252.25 149.79 263.71 149.79 264.35 112.23 267.08 111.68 267.13"/><polyline class="cls-12" points="99.44 278.26 98.38 267.14 98.23 265.65 100.72 265.53 112.23 265.01 112.23 267.08 112.23 278.26"/><polyline class="cls-12" points="149.79 263.71 154.77 262.98 154.31 277.8 112.23 278.33 99.44 278.51 94.31 278.57 54.96 282.58 54.96 270.72 54.96 269.33 88.29 267.65 98.38 267.14 98.8 267.13"/><polyline class="cls-12" points="46.31 256.78 46.31 270.72 54.96 270.72"/><path class="cls-13" d="M187,77.34s8.35-6.7,22.45-16.17l3.77,7.11L187,82.4Z"/><polygon class="cls-13" points="57.81 78.68 38.7 66.05 35.71 74.29 58.26 83.43 57.81 78.68"/><path d="M185.5,73.1s17.65,54.31-31.53,47.78c-25-5.37-22.55-25-20.86-35.76Z"/><path d="M117.67,99.07c-2.4,14.5-12.1,33.2-48.36,18,0,0-15.08-6.47-11.58-40.09l60.46,8.2A56.47,56.47,0,0,1,117.67,99.07Z"/><path class="cls-12" d="M57.73,77l60.46,8.2a56.47,56.47,0,0,1-.52,13.91c-2.4,14.5-12.1,33.2-48.36,18C69.31,117.05,54.23,110.58,57.73,77Z"/><path class="cls-12" d="M133.11,85.12l52.39-12s17.65,54.31-31.53,47.78C129,115.51,131.42,95.92,133.11,85.12Z"/><path class="cls-12" d="M117.46,99.34l.21-.27c1.13-1.4,6.78-7.63,13.83-1.8"/><polygon class="cls-14" points="68.27 88.01 75.32 112.97 82.84 112.97 75.56 88.01 68.27 88.01"/><polygon class="cls-14" points="79.13 87.46 84.03 110.55 86.56 111.2 81.49 88.09 79.13 87.46"/><polygon class="cls-14" points="149.43 89.7 156.48 111.52 164.01 111.52 156.72 89.7 149.43 89.7"/><polygon class="cls-14" points="159.37 89.55 167.04 111.52 169.56 111.83 161.74 89.86 159.37 89.55"/><path class="cls-15" d="M99.45,201.51s8.8-2.14,12.4,5.13"/><path class="cls-16" d="M55.49,199.1s-61,39.41-24.45,90.73c19.6,25.84,57.87,13.95,63.85-5.28,0,0,6.47-28-29.19-19.55C48.93,270.71,55,241,55,241S58.26,208.38,55.49,199.1Z"/><path class="cls-10" d="M75.32,210.47c8.87,6.23,26.51,13.23,54.32,1.61a20.13,20.13,0,0,0-3.35-11.24c8.2-1.35,10-3.89,20.08-4.71,12.64-.85,12.76,15.47,9.82,23.32s-10.08,19.65-31.44,24.32c-6.66,1.28-12.53,2.19-17.77,2.71l-.49,0-.24-3.79-15.65,1.2.42,2.92a43.07,43.07,0,0,1-20.41-6.5,11,11,0,0,0,3.61-8c.06-2.6-1.64-7.37-5.26-5.82-2.85,1.27-3.13,2.2-5.4,3.43a8.22,8.22,0,0,0-6.65-1.26l-.12,0-.06-.24c-11.71-13.69-5-27.77-.65-31.83,9.19-6.36,24,3.31,24,3.31l.32.25a26.55,26.55,0,0,0-4.87,9.87Z"/><path class="cls-10" d="M126.29,200.84a20.13,20.13,0,0,1,3.35,11.24c-27.81,11.62-45.45,4.62-54.32-1.61l.24-.35a26.55,26.55,0,0,1,4.87-9.87,28.6,28.6,0,0,1,22.78-10.62C112.87,189.63,121.68,193.87,126.29,200.84Z"/><path class="cls-10" d="M49.65,238c3.24.91,9.11,1.15,16.06-5.1A6.15,6.15,0,0,0,63.56,230c2.27-1.23,2.55-2.16,5.4-3.43,3.62-1.55,5.32,3.22,5.26,5.82a11,11,0,0,1-3.61,8,17.68,17.68,0,0,1-3.1,2.37c-10.37,6-14.47,5.71-20.42,3S41.71,237.7,42.6,236c2-2.8,7.38-1.49,7.38-1.49l.12,0a8.17,8.17,0,0,0-.42,3.39Z"/><path class="cls-10" d="M63.56,230a6.15,6.15,0,0,1,2.15,2.94c-6.95,6.25-12.82,6-16.06,5.1l0-.12a8.17,8.17,0,0,1,.42-3.39,8.8,8.8,0,0,1,5.58-5.45c.35-.12.74-.22,1.11-.31l.12,0A8.22,8.22,0,0,1,63.56,230Z"/><path class="cls-17" d="M75.56,210.12a26.55,26.55,0,0,1,4.87-9.87,28.6,28.6,0,0,1,22.78-10.62c9.66,0,18.47,4.24,23.08,11.21a20.13,20.13,0,0,1,3.35,11.24"/><path class="cls-17" d="M68.41,204.12a31.27,31.27,0,0,0,6.91,6.35c8.87,6.23,26.51,13.23,54.32,1.61,3.27-1.36,6.66-3,10.21-4.89"/><path class="cls-17" d="M107,246.48c5.24-.52,11.11-1.43,17.77-2.71,21.36-4.67,28.49-16.46,31.44-24.32s2.82-24.17-9.82-23.32c-10.07.82-11.88,3.36-20.08,4.71-.11,0-.23,0-.35.06"/><path class="cls-17" d="M70.61,240.34A43.07,43.07,0,0,0,91,246.84"/><path class="cls-17" d="M80.11,200s-14.84-9.67-24-3.31c-4.33,4.06-11.06,18.14.65,31.83"/><path class="cls-17" d="M56.91,228.73A8.22,8.22,0,0,1,63.56,230a6.15,6.15,0,0,1,2.15,2.94"/><path class="cls-17" d="M55.68,229.07c.35-.12.74-.22,1.11-.31l.12,0"/><path class="cls-17" d="M49.68,237.91a8.17,8.17,0,0,1,.42-3.39,8.8,8.8,0,0,1,5.58-5.45"/><path class="cls-17" d="M47,236.88A9.73,9.73,0,0,0,49.65,238c3.24.91,9.11,1.15,16.06-5.1.82-.73,1.64-1.55,2.49-2.47"/><path class="cls-17" d="M50,234.48s-5.34-1.31-7.38,1.49c-.89,1.73-1.44,7.1,4.49,9.78s10,3,20.42-3a17.68,17.68,0,0,0,3.1-2.37,11,11,0,0,0,3.61-8c.06-2.6-1.64-7.37-5.26-5.82-2.85,1.27-3.13,2.2-5.4,3.43l-.09.06"/><polyline class="cls-17" points="106.98 254.32 106.49 246.51 106.25 242.72 90.6 243.92 91.02 246.84 92.17 254.78"/></g></g></svg>