<?xml version="1.0" standalone="no"?><!DOCTYPE svg PUBLIC "-//W3C//DTD SVG 1.1//EN" "http://www.w3.org/Graphics/SVG/1.1/DTD/svg11.dtd"><svg t="1611898066400" class="icon" viewBox="0 0 1024 1024" version="1.1" xmlns="http://www.w3.org/2000/svg" p-id="2816" width="32" height="32" xmlns:xlink="http://www.w3.org/1999/xlink"><defs><style type="text/css"></style></defs><path d="M343.373362 810.757112c13.130599 0 25.573481 2.654908 37.320648 7.964723a98.199607 98.199607 0 0 1 31.107205 22.166882c8.980306 9.468105 15.889464 20.647507 20.727474 33.530208 4.83801 12.890698 7.261013 26.533086 7.261013 40.927166 0 14.394079-2.423003 28.044464-7.261013 40.927165-4.83801 12.882701-11.747168 24.070099-20.735471 33.538205a106.356252 106.356252 0 0 1-31.099208 22.734648 84.621193 84.621193 0 0 1-37.320648 8.524494c-13.826313 0-26.437126-2.838832-37.840435-8.524494a108.787252 108.787252 0 0 1-30.587419-22.734648c-8.980306-9.476102-15.897461-20.655504-20.735471-33.538205a115.448512 115.448512 0 0 1-7.253016-40.927165c0-14.394079 2.415007-28.036468 7.253016-40.927166 4.83801-12.874704 11.755165-24.062102 20.735471-33.530208a100.078834 100.078834 0 0 1 30.587419-22.166882c11.403309-5.309816 24.014122-7.964724 37.840435-7.964723z m431.278601 2.279062c13.138596 0 25.749408 2.646911 37.848431 7.956727a91.050548 91.050548 0 0 1 31.099208 22.166882c8.636448 9.476102 15.553602 20.655504 20.735471 33.538205 5.181869 12.874704 7.772803 26.525089 7.772803 40.927165 0 14.394079-2.590934 28.036468-7.772803 40.919169-5.181869 12.882701-12.099023 24.070099-20.735471 33.538205a97.983696 97.983696 0 0 1-31.107204 22.734648 87.963818 87.963818 0 0 1-37.840435 8.524494 84.605199 84.605199 0 0 1-37.320649-8.524494 99.782956 99.782956 0 0 1-30.579422-22.734648c-8.636448-9.476102-15.553602-20.655504-20.735471-33.538205a108.603328 108.603328 0 0 1-7.780799-40.919169c0-14.402076 2.598931-28.044464 7.780799-40.927165 5.181869-12.882701 12.091027-24.070099 20.735471-33.538205a92.433979 92.433979 0 0 1 30.579422-22.166882 89.65912 89.65912 0 0 1 37.320649-7.956727z m174.176355-645.710398c19.35204 0 34.385856 2.838832 45.101449 8.524493 10.715592 5.677665 18.312467 12.69078 22.806619 21.031349a51.39486 51.39486 0 0 1 6.221441 26.709014c-0.351855 9.476102-1.559359 17.62475-3.630507 24.445945-2.079145 6.821194-6.397369 20.839428-12.954671 42.062698a4712.205718 4712.205718 0 0 1-22.29483 69.915242 9886.917192 9886.917192 0 0 0-24.365977 75.592906c-7.94873 25.013711-13.994244 44.717606-18.144537 59.119682-8.980306 30.307534-20.391612 51.338883-34.209928 63.094047-13.818316 11.747168-30.755349 17.616754-50.795107 17.616754H312.266157l15.553602 102.317913h522.52107c33.170356 0 49.763531 15.537609 49.763531 46.60483 0 15.161763-3.278651 28.228389-9.851947 39.223866-6.565299 10.98748-19.527968 16.481221-38.880008 16.481221H308.123861c-13.826313 0-25.397553-3.406599-34.729715-10.23579-9.332161-6.813198-17.112961-15.721533-23.326405-26.709014a170.146013 170.146013 0 0 1-15.033816-35.80927 352.87885 352.87885 0 0 1-8.812375-36.385034c-0.695714-4.542132-2.590934-15.529612-5.701655-32.962441-3.118717-17.432829-6.917155-39.215869-11.403309-65.365113l-15.033816-87.539992c-5.533724-32.202754-11.059451-64.605426-16.593175-97.192022-13.130599-76.544515-27.988487-161.805444-44.573665-255.782788H55.147918c-10.363737 0-19.008181-2.846829-25.909343-8.532491a72.162317 72.162317 0 0 1-17.112961-20.455586 83.293739 83.293739 0 0 1-9.332161-25.589474C1.07416 68.422458 0.210516 60.089885 0.210516 52.509003c0-15.161763 4.662082-27.668619 13.994243-37.504573C23.536921 5.128493 36.147733 0.210516 52.045194 0.210516h104.716927c13.818316 0 24.877767 2.271066 33.170356 6.821194 8.292589 4.550128 14.857888 10.23579 19.695898 17.048987a68.355883 68.355883 0 0 1 10.371734 21.599116c2.079145 7.580882 3.798438 14.026231 5.181869 19.328049 1.383431 6.061507 2.766862 14.593997 4.150292 25.581478 1.383431 10.98748 2.758865 22.166882 4.142297 33.530208 2.079145 13.642388 4.150293 28.044464 6.22144 43.206228h709.132311z" p-id="2817" fill="#cdcdcd"></path></svg>