<?xml version="1.0" standalone="no"?><!DOCTYPE svg PUBLIC "-//W3C//DTD SVG 1.1//EN" "http://www.w3.org/Graphics/SVG/1.1/DTD/svg11.dtd"><svg t="1611147827203" class="icon" viewBox="0 0 1024 1024" version="1.1" xmlns="http://www.w3.org/2000/svg" p-id="4232" xmlns:xlink="http://www.w3.org/1999/xlink" width="200" height="200"><defs><style type="text/css"></style></defs><path d="M512.8 206.4L768 389.6V832H640V576H384v256H256V389.6l256.8-183.2m0-71.2c-6.4 0-12.8 1.6-18.4 5.6L104 419.2c-12.8 8.8-6.4 28.8 9.6 28.8H192v432c0 8.8 7.2 16 16 16h224c8.8 0 16-7.2 16-16V640h128v240c0 8.8 7.2 16 16 16h224c8.8 0 16-7.2 16-16V448h78.4c15.2 0 21.6-20 9.6-28.8L531.2 141.6c-5.6-4-12-6.4-18.4-6.4z" p-id="4233" fill="#1296db"></path></svg>