<?xml version="1.0" standalone="no"?><!DOCTYPE svg PUBLIC "-//W3C//DTD SVG 1.1//EN" "http://www.w3.org/Graphics/SVG/1.1/DTD/svg11.dtd"><svg t="1612448384320" class="icon" viewBox="0 0 1024 1024" version="1.1" xmlns="http://www.w3.org/2000/svg" p-id="6215" width="48" height="48" xmlns:xlink="http://www.w3.org/1999/xlink"><defs><style type="text/css"></style></defs><path d="M513.5 659.6c-9.4 0-17.6-6.6-19.5-15.8l-46.9-217c-1.3-5.9 0.2-12.1 4-16.8s9.5-7.4 15.6-7.4h92.8c6 0 11.7 2.7 15.5 7.4 3.8 4.7 5.3 10.8 4 16.7l-45.9 217c-2 9.2-10.1 15.8-19.6 15.9z m-22.1-217L513.3 544l21.4-101.4h-43.3z" fill="#F1571E" p-id="6216"></path><path d="M513 441.8c-102.2 0-185.4-83.1-185.4-185.4C327.6 154.2 410.7 71 513 71c102.2 0 185.4 83.1 185.4 185.4 0 102.2-83.2 185.4-185.4 185.4z m0-330.7c-80.1 0-145.4 65.2-145.4 145.4 0 80.1 65.2 145.4 145.4 145.4s145.4-65.2 145.4-145.4S593.1 111.1 513 111.1z" fill="#1A1A1A" p-id="6217"></path><path d="M716.4 879.3c-26.5 0-55.7-2.9-86.6-6-35.7-3.6-76.2-7.6-117.5-7.6s-81.8 4-117.5 7.6c-77 7.7-143.5 14.3-184.2-22.6-25-22.6-37.1-59-37.1-111.3 0-45.7 9-90.1 26.6-131.9 17.1-40.4 41.5-76.6 72.6-107.7 31.1-31.1 67.4-55.5 107.7-72.6 41.8-17.7 86.2-26.6 131.9-26.6s90.1 9 131.9 26.6c40.4 17.1 76.6 41.5 107.7 72.6s55.5 67.4 72.6 107.7c17.7 41.8 26.6 86.2 26.6 131.9 0 52.3-12.2 88.7-37.1 111.3-24.4 22.1-58 28.6-97.6 28.6z m-204.1-53.6c43.2 0 84.8 4.1 121.5 7.8 67.5 6.7 125.8 12.5 153.4-12.4 16.1-14.6 24-41.3 24-81.6 0-164.8-134.1-298.9-298.9-298.9s-298.9 134-298.9 298.8c0 40.3 7.8 67 24 81.6 27.6 25 85.9 19.2 153.4 12.4 36.7-3.6 78.2-7.7 121.5-7.7z" fill="#1A1A1A" p-id="6218"></path></svg>