<?xml version="1.0" standalone="no"?><!DOCTYPE svg PUBLIC "-//W3C//DTD SVG 1.1//EN" "http://www.w3.org/Graphics/SVG/1.1/DTD/svg11.dtd"><svg t="1612443798294" class="icon" viewBox="0 0 1024 1024" version="1.1" xmlns="http://www.w3.org/2000/svg" p-id="5334" width="48" height="48" xmlns:xlink="http://www.w3.org/1999/xlink"><defs><style type="text/css"></style></defs><path d="M434.4 306.7S329.1 191.9 329.7 140.2c0.6-52 32.7-31.6 43.8-20.1 13 13.5 40.2 31.6 60.9-3 20.7-34.7 47.9-38.8 79.1-6.7 21.3 21.9 61.9-19.2 80.3-24.3 21.9-6.1 57.8 15.8 67.5 32.3s27.4-15.2 37.7-14.6c10.3 0.6 26.8 21.3 0 63.3S584.7 303.9 584.7 303.9l-150.3 2.8z" fill="#F8B739" p-id="5335"></path><path d="M431.8 312.8l-1.9-2C425.6 306 323 193.6 323.7 140.1c0.2-21.3 5.8-34.3 16.4-38.5 13.8-5.5 30.3 6.4 37.8 14.3 4.8 5 17.4 16.4 30.3 15 7.8-0.9 14.8-6.6 21-16.9 11.3-19 24.7-29.5 39.6-31.3 15.6-1.8 32.1 6.1 49.1 23.4 10.6 10.9 29.4 0.3 51.1-13.5 9-5.7 16.8-10.7 23.2-12.5 25-6.9 63.5 16.6 74.4 35 0.7 1.2 1.3 1.7 1.6 1.7 2.4 0.4 9-5.5 12.5-8.7 6.3-5.7 12.2-11 18.8-10.6 6.5 0.4 12.9 5.1 16.6 12.4 4.4 8.6 8.7 28-11.8 60.2-26.8 42-111.5 133.9-115.1 137.8l-1.8 1.9-155.6 3z m-84.1-200.4c-1.1 0-2.2 0.2-3.1 0.6-5.5 2.2-8.6 11.9-8.7 27.3-0.2 19.8 17.4 54 50.9 98.9 21.8 29.2 43.9 54.2 50.3 61.3l144.9-2.7c12.5-13.6 87.9-96.4 112-134.2 18-28.2 13.9-43.1 11.3-48.1-2.1-4.1-5-5.7-6.5-5.8-1.8 0.2-6.9 4.8-9.9 7.5-7.1 6.4-14.4 12.9-22.5 11.7-2.9-0.4-6.9-2.1-10.2-7.6-8.7-14.6-41.9-34.7-60.7-29.5-4.7 1.3-12.1 6-19.9 11-20.3 12.9-48.1 30.6-66.4 11.7-14.1-14.5-27.2-21.2-38.9-19.8-11 1.3-21.3 9.8-30.6 25.4-8.2 13.8-18.3 21.4-30.1 22.8-17.6 2-32.9-10.8-40.4-18.6-5.3-5.4-14.7-11.9-21.5-11.9z" fill="#333333" p-id="5336"></path><path d="M412.5 312.1s-132 81.8-191.7 257.7 11 287.8 180.7 321.9 320.1-2.4 378.5-61.5c58.4-59 59.6-138.7 12.8-244C746 481 676.6 364.2 585.9 312.1H412.5z" fill="#DB4040" p-id="5337"></path><path d="M531.3 910.9c-42.8 0-86.9-4.4-130.9-13.3-87.5-17.6-148.3-54.9-180.7-111-32.9-57.1-34.5-130.7-4.6-218.8 31.2-91.9 82.2-157.9 119.6-197 40.5-42.5 73.3-63 74.7-63.9l1.5-0.9h176.8l1.4 0.8c42.2 24.2 83.2 64.2 121.8 118.9 30.9 43.8 60.4 96.9 87.6 158 24.4 54.8 35.4 101.3 33.6 142.1-1.8 42.6-17.4 78.2-47.6 108.7-30.8 31.1-84.3 55-150.7 67.3-32.8 6.1-67.2 9.1-102.5 9.1z m-117-592.7c-6.7 4.4-36.3 24.7-71.2 61.3-36.4 38.2-86.2 102.6-116.5 192.2-28.7 84.6-27.5 154.8 3.7 208.8 30.5 52.9 88.6 88.3 172.5 105.2 171.9 34.5 317.7-4 373-59.8 55.1-55.7 58.8-131.1 11.5-237.3-41.8-93.9-110.8-216.7-203-270.5h-170z m1.4-0.9z" fill="#333333" p-id="5338"></path><path d="M447.2 342.3s-117.4 75.6-170.4 238.1 9.7 266 160.7 297.5S722 875.7 774 821.1c51.9-54.6 53-128.2 11.4-225.5-41.7-97.3-103.3-205.2-184-253.3H447.2z" fill="#EA4747" p-id="5339"></path><path d="M617.6 274.7c0-8-6.6-14.6-14.6-14.6H394.2c-8 0-14.6 6.6-14.6 14.6v11c0 3.6 1.4 7 3.6 9.5-4.3 3.1-6.9 8.3-6.7 14l0.9 17.6c0.4 9 8.1 16 17.1 15.5l205-10c9-0.4 16-8.1 15.5-17.1l-0.9-17.6c0-0.8-0.2-1.5-0.3-2.3 2.3-2.6 3.7-5.9 3.7-9.6v-11z" fill="#DB4040" p-id="5340"></path><path d="M393.7 348.4c-11.9 0-21.8-9.4-22.4-21.3l-0.9-17.6c-0.3-5.6 1.5-10.9 5-15.2-1.2-2.7-1.9-5.6-1.9-8.6v-11c0-11.4 9.3-20.7 20.7-20.7H603c11.4 0 20.7 9.3 20.7 20.7v11c0 4-1.2 7.9-3.4 11.3v0.3l0.9 17.6c0.3 6-1.8 11.7-5.8 16.2-4 4.4-9.5 7.1-15.5 7.3l-205 10h-1.2z m0.5-82.3c-4.7 0-8.5 3.8-8.5 8.5v11c0 2 0.7 4 2.1 5.5l4.3 5-5.3 3.9c-2.8 2.1-4.4 5.3-4.2 8.8l0.9 17.6c0.3 5.7 5.1 10 10.8 9.8l205-10c5.7-0.3 10-5.1 9.8-10.8l-0.9-17.6c0-0.4-0.1-0.9-0.2-1.4l-0.6-2.9 2-2.2c1.4-1.6 2.1-3.6 2.1-5.6v-11c0-4.7-3.8-8.5-8.5-8.5H394.2z" fill="#333333" p-id="5341"></path><path d="M585.3 336.8c-45.5-50.6-199.9-35.8-201.5-35.6l-1.2-12.1c6.6-0.7 162.2-15.5 211.7 39.6l-9 8.1z" fill="#333333" p-id="5342"></path><path d="M633.4 150.7s18.4 48.1-28.9 78-29.4 5.6-8.8-13.9c20.6-19.5 12.7-49.1 18.1-64.4 5.4-15.3 27.3-31.9 19.6 0.3z" fill="#F4BE67" p-id="5343"></path><path d="M530.9 791.9h-32.3v-42.6c-42 0-76.8-5.9-104.5-17.7v-37.9c27.6 15.5 62.5 23.8 104.5 24.9V617.5c-44.4-14.2-73.2-27.5-86.5-39.8-13.3-12.3-19.9-26.9-19.9-43.8 0-19.6 9.9-36.7 29.7-51.2 19.8-14.5 45.4-23.2 76.7-26.1v-36.8h32.3v36c40.4 1 67.8 4.9 82.4 11.7v37c-21.2-11.1-48.6-17-82.4-17.9v104.2c41.6 13 70.3 25.9 86 38.8 15.7 12.9 23.5 27.4 23.5 43.5 0 20.3-9.9 36.9-29.6 49.9-19.7 13-46.3 21.2-79.9 24.6v44.3z m-32.3-304.2c-35.4 5.3-53.1 19.3-53.1 42.1 0 10.9 3.8 20 11.3 27.2 7.6 7.2 21.5 14.6 41.7 22.3v-91.6zM530.9 717c37.4-5.5 56.1-19.2 56.1-40.9 0-18.2-18.7-34.2-56.1-47.7V717z" fill="#F8B739" p-id="5344"></path><path d="M535.9 796.9h-42.3v-42.7c-40.3-0.5-74.4-6.5-101.4-18.1l-3-1.3V685l7.4 4.2c25.7 14.4 58.3 22.5 97 24.1v-92.1c-43.6-14.2-71.4-27.2-85-39.8-14.3-13.3-21.5-29.2-21.5-47.4 0-21.2 10.7-39.8 31.8-55.3 19.5-14.3 44.6-23.2 74.7-26.6v-37.3h42.3V451c38.7 1.2 64.8 5.2 79.5 12l2.9 1.3v48.4l-7.3-3.8c-19.3-10.1-44.6-15.9-75.1-17.2V587c40.7 12.9 68.3 25.5 84.1 38.6 16.8 13.8 25.3 29.8 25.3 47.4 0 21.9-10.7 40.1-31.8 54.1-19.4 12.8-45.5 21.2-77.6 24.9v44.9z m-32.3-10h22.3V743l4.5-0.5c32.6-3.3 58.7-11.3 77.6-23.8 18.4-12.1 27.3-27.1 27.3-45.7 0-14.7-7.1-27.6-21.7-39.6-15.1-12.4-43.4-25.2-84.3-37.9l-3.5-1.1v-113l5.1 0.1c30.6 0.8 56.5 5.8 77.2 15v-25.7c-14.6-5.7-40.6-9.1-77.5-10l-4.9-0.1v-35.9h-22.3v36.4l-4.5 0.4c-30.3 2.8-55.2 11.3-74.2 25.2-18.6 13.7-27.7 29.1-27.7 47.2 0 15.5 6 28.7 18.3 40.1 12.7 11.8 41.1 24.8 84.6 38.7l3.5 1.1v109.7l-5.1-0.1c-39-1.1-72.3-8.3-99.3-21.6v26.3c26.4 10.7 59.9 16.1 99.5 16.1h5v42.6z m22.3-64.1V621.1l6.7 2.4c40 14.5 59.4 31.7 59.4 52.4 0 24.5-20.3 40-60.4 45.9l-5.7 1z m10-87.3v75.6c31-5.6 46.1-17.1 46.1-35.1 0-14.8-15.5-28.4-46.1-40.5z m-32.3-49l-6.8-2.6c-21.1-8-35.3-15.6-43.4-23.3-8.6-8.1-12.9-18.5-12.9-30.8 0-25.5 19.3-41.3 57.3-47l5.7-0.9v104.6z m-10-92.9c-29 5.4-43.1 17.3-43.1 36.2 0 9.6 3.2 17.3 9.8 23.5 6.2 5.9 17.4 12.1 33.3 18.6v-78.3z" fill="#333333" p-id="5345"></path></svg>