<?xml version="1.0" standalone="no"?><!DOCTYPE svg PUBLIC "-//W3C//DTD SVG 1.1//EN" "http://www.w3.org/Graphics/SVG/1.1/DTD/svg11.dtd"><svg t="1612443755123" class="icon" viewBox="0 0 1024 1024" version="1.1" xmlns="http://www.w3.org/2000/svg" p-id="4898" width="48" height="48" xmlns:xlink="http://www.w3.org/1999/xlink"><defs><style type="text/css"></style></defs><path d="M949.9 397.6c-40 497.2-833 511.2-874.2-2.6 19 44.4 107.9 98.6 226.5 131 63.6 17.4 135.8 28.6 210.3 28.6 74.8 0 146.8-11 210.2-28.3 115.7-31.5 202.6-84 224.8-128.7h2.4z" fill="#F4B037" p-id="4899"></path><path d="M509.7 780.5c-0.1 0-0.1 0 0 0-109.1 0-212.2-33.9-290.1-95.5-87.8-69.3-139.3-169.4-148.9-289.5-0.2-2.4 1.4-4.7 3.8-5.3 2.4-0.6 4.8 0.6 5.8 2.9 19.1 44.7 110.9 97.4 223.2 128.1 67.8 18.6 140.1 28.4 209 28.4 69.2 0 141.5-9.7 208.9-28.1 55.3-15.1 105.9-35.4 146.3-58.9 38.1-22.1 64.8-46 75.4-67.2 0.8-1.7 2.6-2.8 4.5-2.8h2.5c1.4 0 2.7 0.6 3.6 1.6s1.4 2.4 1.3 3.8c-9.5 117.9-61.7 216.9-151 286.2-80 62.1-184.5 96.3-294.3 96.3zM82.9 416.3c30.4 244.4 233.8 354.2 426.7 354.2h0.1c190.9 0 405.1-111.7 433.6-356.7-32.9 43.9-117.5 89.6-219.2 117.3-68.3 18.6-141.4 28.5-211.5 28.5-69.8 0-142.9-9.9-211.6-28.7-57.6-15.7-110.1-37-151.8-61.5-30.1-17.6-52.5-35.6-66.3-53.1z" fill="#333333" p-id="4900"></path><path d="M947.5 397.6c-22.2 44.7-109.1 97.1-224.8 128.7-63.4 17.3-135.4 28.3-210.2 28.3-74.5 0-146.7-11.1-210.3-28.6-118.6-32.4-207.5-86.5-226.5-131l-0.6-7.8 226.7 2.7 423.1 5 222.6 2.7z" fill="#F4B037" p-id="4901"></path><path d="M512.5 559.6c-69.8 0-142.9-9.9-211.6-28.7-57.6-15.7-110.1-37-151.8-61.5-41.1-24.1-68.1-49.2-78-72.4-0.2-0.5-0.4-1.1-0.4-1.7-0.2-2.5-0.4-5.1-0.6-7.7-0.1-1.4 0.4-2.8 1.4-3.8 1-1 2.3-1.6 3.7-1.6l226.7 2.7 423.1 5 222.6 2.6c1.7 0 3.3 0.9 4.2 2.4 0.9 1.5 1 3.3 0.2 4.8-23.8 47.8-115.4 100.6-228 131.3-68.2 18.7-141.4 28.6-211.5 28.6zM80.6 393.8c19.8 44.6 111.2 96.9 222.9 127.4 67.8 18.6 140.1 28.4 209 28.4 69.2 0 141.5-9.7 208.9-28.1 55.3-15.1 105.9-35.4 146.3-58.9 33.9-19.7 58.8-40.7 71.3-60L724.9 400l-423.1-5-221.3-2.6c0 0.4 0.1 0.9 0.1 1.4z" fill="#333333" p-id="4902"></path><path d="M947.5 397.6c-22.2 44.7-109.1 97.1-224.8 128.7-63.4 17.3-135.4 28.3-210.2 28.3-74.5 0-146.7-11.1-210.3-28.6-118.6-32.4-207.5-86.5-226.5-131-4-9.4-4.9-18.5-2.2-26.7 16.4-50.6 116.8-47.9 266.7-43.1 52 1.6 110.1 3.5 172.6 3.5 61.9 0 119.7-2 171.7-3.8 152-5.3 255-9 267.6 43.4 2.2 9.1 0.5 19-4.6 29.3z" fill="#F4B037" p-id="4903"></path><path d="M512.5 559.6c-69.8 0-142.9-9.9-211.6-28.7-57.6-15.7-110.1-37-151.8-61.5-41.1-24.1-68.1-49.2-78-72.4 0-0.1-0.1-0.2-0.1-0.3-4.5-10.6-5.2-20.7-2.2-29.9 4.4-13.7 14.3-24.1 30.1-31.7 13.9-6.7 32.7-11.3 57.4-14 47.1-5.2 113.7-3.1 184.1-0.8l5.3 0.2c50.1 1.6 106.8 3.4 167.2 3.4 63.2 0 123.3-2.1 171.6-3.8h1.1c155.4-5.4 258.1-9 271.6 47.3 2.4 10.1 0.7 21.1-5 32.7-23.8 47.8-115.4 100.6-228 131.3-68.4 18.3-141.6 28.2-211.7 28.2zM80.4 393.4c19.4 44.7 111 97.2 223.1 127.9 67.8 18.6 140.1 28.4 209 28.4 69.2 0 141.5-9.7 208.9-28.1 55.3-15.1 105.9-35.4 146.3-58.9 38.1-22.1 64.8-46 75.4-67.2 4.7-9.4 6.1-18.1 4.2-25.9-5.2-21.9-29.7-34.4-76.8-39.5-45.8-4.9-110.1-2.7-184.6-0.1h-1.1c-48.4 1.7-108.6 3.8-171.9 3.8-60.5 0-117.3-1.8-167.5-3.4l-5.3-0.2c-143.1-4.5-246.4-7.8-261.8 39.7-2.2 6.9-1.6 14.7 2 23.2 0 0.1 0.1 0.2 0.1 0.3z" fill="#333333" p-id="4904"></path><path d="M735.1 457.5c0 24.1-4.3 47.2-12.4 68.8-63.4 17.3-135.4 28.3-210.2 28.3-74.5 0-146.7-11.1-210.3-28.6-8-21.5-12.3-44.5-12.3-68.6 0-23.6 4.2-46.4 11.9-67.5 8.6-23.8 21.7-45.7 38.4-64.7 40.8-46.8 102.8-76.7 172.3-76.7 69.3 0 131.2 29.7 172 76.4 17.9 20.5 31.8 44.2 40.4 70.1 6.6 19.7 10.2 40.7 10.2 62.5z" fill="#F4B037" p-id="4905"></path><path d="M512.5 559.6c-69.8 0-142.9-9.9-211.6-28.7-1.6-0.4-2.8-1.6-3.4-3.1-8.4-22.5-12.6-46.2-12.6-70.3 0-23.8 4.1-47.1 12.2-69.3 8.7-24.2 22-46.5 39.3-66.3 43.4-49.8 107.6-78.4 176.1-78.4 68.3 0 132.4 28.5 175.8 78.1 18.7 21.4 32.6 45.5 41.4 71.8 6.9 20.7 10.4 42.3 10.4 64.1 0 24.2-4.3 48-12.7 70.5-0.6 1.5-1.8 2.7-3.4 3.1-68.2 18.6-141.4 28.5-211.5 28.5zM306 521.9c67.1 18.1 138.5 27.7 206.5 27.7 68.4 0 139.7-9.5 206.4-27.5 7.4-20.7 11.2-42.5 11.2-64.6 0-20.8-3.3-41.3-9.9-60.9-8.3-25-21.6-48-39.4-68.3-41.5-47.4-102.9-74.7-168.3-74.7-65.6 0-127 27.3-168.5 75-16.5 18.9-29.1 40.2-37.4 63.2-7.7 21.1-11.6 43.3-11.6 65.8-0.1 22 3.6 43.6 11 64.3z m416.7 4.4z" fill="#333333" p-id="4906"></path><path d="M718 395.2c-8.3-24.8-21.5-47.5-38.7-67.1-39.1-44.7-98.4-73.1-164.8-73.1-5.1 0-10.2 0.2-15.2 0.5-46.8 64.7-105.8 169-104.9 282.9 38.5 6.2 79 9.8 120.1 9.8 71.6 0 140.6-10.5 201.4-27.1 7.7-20.6 11.8-42.8 11.8-65.9 0-20.9-3.4-41-9.7-60z" fill="#EACA63" opacity=".3" p-id="4907"></path><path d="M937.6 417.7c-20.1 39.4-97.6 85-200.4 111.7-56.4 14.7-120.3 30.7-186.5 30-66-0.7-129.8 2.7-186-13.4-14.2-4.1-27.9-4.5-41.1-9.1 30.6 69.4 53.6 154.8 124.6 229.9 206.2 36.3 468.5-98.5 491.6-349l-2.2-0.1z" fill="#EACA63" opacity=".3" p-id="4908"></path><path d="M616.6 382.2m-23.5 0a23.5 23.5 0 1 0 47 0 23.5 23.5 0 1 0-47 0Z" fill="#EACA63" opacity=".8" p-id="4909"></path></svg>