<?xml version="1.0" standalone="no"?><!DOCTYPE svg PUBLIC "-//W3C//DTD SVG 1.1//EN" "http://www.w3.org/Graphics/SVG/1.1/DTD/svg11.dtd"><svg t="1612443735612" class="icon" viewBox="0 0 1024 1024" version="1.1" xmlns="http://www.w3.org/2000/svg" p-id="4561" width="48" height="48" xmlns:xlink="http://www.w3.org/1999/xlink"><defs><style type="text/css"></style></defs><path d="M512 71.4c-243.2 0-440.4 197.2-440.4 440.4S268.8 952.2 512 952.2 952.4 755 952.4 511.8 755.2 71.4 512 71.4z m0 768.2c-181 0-327.8-146.8-327.8-327.8S331 184 512 184s327.8 146.8 327.8 327.8S693 839.6 512 839.6z" fill="#F3990F" p-id="4562"></path><path d="M512 957.2c-60.1 0-118.5-11.8-173.4-35-53-22.4-100.7-54.5-141.6-95.5-40.9-40.9-73-88.5-95.5-141.6-23.2-54.9-35-113.2-35-173.4 0-60.1 11.8-118.5 35-173.4 22.4-53 54.5-100.7 95.5-141.6 40.9-40.9 88.5-73 141.6-95.5 54.9-23.2 113.2-35 173.4-35 60.1 0 118.5 11.8 173.4 35 53 22.4 100.7 54.5 141.6 95.5 40.9 40.9 73 88.5 95.5 141.6 23.2 54.9 35 113.2 35 173.4 0 60.1-11.8 118.5-35 173.4-22.4 53-54.5 100.7-95.5 141.6-40.9 40.9-88.5 73-141.6 95.5-54.9 23.2-113.3 35-173.4 35z m0-880.8c-240.1 0-435.4 195.3-435.4 435.4 0 240.1 195.3 435.4 435.4 435.4 240.1 0 435.4-195.3 435.4-435.4 0-240.1-195.3-435.4-435.4-435.4z m0 768.2c-88.9 0-172.5-34.6-235.3-97.5-62.9-62.9-97.5-146.4-97.5-235.3s34.6-172.5 97.5-235.3C339.5 213.6 423.1 179 512 179s172.5 34.6 235.3 97.5c62.9 62.9 97.5 146.4 97.5 235.3s-34.6 172.5-97.5 235.3C684.5 810 600.9 844.6 512 844.6z m0-655.6c-178 0-322.8 144.8-322.8 322.8S334 834.6 512 834.6s322.8-144.8 322.8-322.8S690 189 512 189z" fill="#333333" p-id="4563"></path><path d="M512 511.8m-327.8 0a327.8 327.8 0 1 0 655.6 0 327.8 327.8 0 1 0-655.6 0Z" fill="#F9BD53" p-id="4564"></path><path d="M512 844.6c-88.9 0-172.5-34.6-235.3-97.5-62.9-62.9-97.5-146.4-97.5-235.3s34.6-172.5 97.5-235.3C339.5 213.6 423.1 179 512 179s172.5 34.6 235.3 97.5c62.9 62.9 97.5 146.4 97.5 235.3s-34.6 172.5-97.5 235.3C684.5 810 600.9 844.6 512 844.6z m0-655.6c-178 0-322.8 144.8-322.8 322.8S334 834.6 512 834.6s322.8-144.8 322.8-322.8S690 189 512 189z" fill="#333333" p-id="4565"></path><path d="M381.3 383.8v258.9h258.9V383.8H381.3zM581 583.4H440.6V443H581v140.4z" fill="#F3990F" p-id="4566"></path><path d="M640.2 647.7H381.3c-2.8 0-5-2.2-5-5V383.8c0-2.8 2.2-5 5-5h258.9c2.8 0 5 2.2 5 5v258.9c0 2.7-2.2 5-5 5z m-253.9-10h248.9V388.8H386.3v248.9zM581 588.4H440.6c-2.8 0-5-2.2-5-5V443c0-2.8 2.2-5 5-5H581c2.8 0 5 2.2 5 5v140.4c0 2.8-2.2 5-5 5z m-135.4-10H576V448H445.6v130.4z" fill="#333333" p-id="4567"></path><path d="M440.6 443H581v140.4H440.6z" fill="#FFFFFF" p-id="4568"></path><path d="M581 588.4H440.6c-2.8 0-5-2.2-5-5V443c0-2.8 2.2-5 5-5H581c2.8 0 5 2.2 5 5v140.4c0 2.8-2.2 5-5 5z m-135.4-10H576V448H445.6v130.4z" fill="#333333" p-id="4569"></path><path d="M457.9 77.5C243.1 109.9 78.6 292.4 78.6 512.8c0 222.3 167.4 406.1 384.9 436.1C10 587.7 351.1 185.2 457.9 77.5z" fill="#4D4D4D" opacity=".1" p-id="4570"></path></svg>