<?xml version="1.0" standalone="no"?><!DOCTYPE svg PUBLIC "-//W3C//DTD SVG 1.1//EN" "http://www.w3.org/Graphics/SVG/1.1/DTD/svg11.dtd"><svg t="1612448437740" class="icon" viewBox="0 0 1024 1024" version="1.1" xmlns="http://www.w3.org/2000/svg" p-id="6682" width="48" height="48" xmlns:xlink="http://www.w3.org/1999/xlink"><defs><style type="text/css"></style></defs><path d="M855.4 928.3h-688c-19 0-37.2-8.1-49.8-22.4a66.953 66.953 0 0 1-16.4-52.1l82.3-699.7c3.9-33.6 32.4-58.9 66.2-58.9H773c33.8 0 62.2 25.3 66.2 58.9l82.3 699.7c2.2 18.9-3.8 37.9-16.4 52.1-12.6 14.2-30.7 22.4-49.7 22.4z m-605.8-793c-13.5 0-24.9 10.1-26.5 23.5l-82.3 699.7c-0.9 7.7 1.4 15.1 6.6 20.8 5.1 5.8 12.2 8.9 19.9 8.9h688c7.7 0 14.8-3.2 19.9-8.9 5.1-5.8 7.5-13.2 6.6-20.8l-82.3-699.7c-1.6-13.4-13-23.5-26.5-23.5H249.6z" fill="#262626" p-id="6683"></path><path d="M511.3 531.8c-58.5 0-113.5-24.1-154.7-67.7-41-43.4-63.5-101-63.5-162.2 0-11 9-20 20-20s20 9 20 20c0 104.7 80 189.9 178.2 189.9s178.2-85.2 178.2-189.9c0-11 9-20 20-20s20 9 20 20c0 61.2-22.6 118.8-63.5 162.2-41.2 43.6-96.2 67.7-154.7 67.7z" fill="#F1571E" p-id="6684"></path></svg>