<?xml version="1.0" standalone="no"?><!DOCTYPE svg PUBLIC "-//W3C//DTD SVG 1.1//EN" "http://www.w3.org/Graphics/SVG/1.1/DTD/svg11.dtd"><svg t="1612448402343" class="icon" viewBox="0 0 1024 1024" version="1.1" xmlns="http://www.w3.org/2000/svg" p-id="6476" width="48" height="48" xmlns:xlink="http://www.w3.org/1999/xlink"><defs><style type="text/css"></style></defs><path d="M512 931c-4 0-8-1.2-11.4-3.6-3.7-2.6-91-63.8-179.8-150.3C268.2 726 226.2 676.6 196 630.5c-38.9-59.4-58.7-114.2-58.7-162.9 0-50.6 9.9-99.6 29.5-145.8 18.9-44.6 45.9-84.7 80.3-119.1s74.5-61.4 119.1-80.3C412.4 102.9 461.4 93 512 93c50.6 0 99.6 9.9 145.8 29.5 44.6 18.9 84.7 45.9 119.1 80.3s61.4 74.5 80.3 119.1c19.5 46.2 29.5 95.3 29.5 145.8 0 48.6-19.7 103.4-58.7 162.9-30.2 46.1-72.2 95.4-124.7 146.6-88.8 86.5-176.2 147.7-179.8 150.3-3.5 2.3-7.5 3.5-11.5 3.5z m0-798c-184.5 0-334.7 150.1-334.7 334.7 0 74.6 59.2 171.7 171.3 280.8 68.1 66.3 136.8 118.4 163.4 137.9 26.6-19.5 95.6-71.8 163.8-138.3 111.8-109 170.9-205.9 170.9-280.4C846.7 283.1 696.5 133 512 133z" fill="#262626" p-id="6477"></path><path d="M512 538.3c-63.4 0-115-51.6-115-115s51.6-115 115-115 115 51.6 115 115-51.6 115-115 115z m0-190c-41.4 0-75 33.6-75 75s33.6 75 75 75 75-33.6 75-75-33.6-75-75-75z" fill="#F1571E" p-id="6478"></path></svg>