<?xml version="1.0" standalone="no"?><!DOCTYPE svg PUBLIC "-//W3C//DTD SVG 1.1//EN" "http://www.w3.org/Graphics/SVG/1.1/DTD/svg11.dtd"><svg t="1612444000048" class="icon" viewBox="0 0 1024 1024" version="1.1" xmlns="http://www.w3.org/2000/svg" p-id="1234" width="48" height="48" xmlns:xlink="http://www.w3.org/1999/xlink"><defs><style type="text/css"></style></defs><path d="M149.333333 384h725.333334v490.666667a21.333333 21.333333 0 0 1-21.333334 21.333333H170.666667a21.333333 21.333333 0 0 1-21.333334-21.333333V384z" fill="#8BC34A" p-id="1235"></path><path d="M128 256m21.333333 0l725.333334 0q21.333333 0 21.333333 21.333333l0 85.333334q0 21.333333-21.333333 21.333333l-725.333334 0q-21.333333 0-21.333333-21.333333l0-85.333334q0-21.333333 21.333333-21.333333Z" fill="#8BC34A" p-id="1236"></path><path d="M149.333333 384h725.333334v42.666667H149.333333z" fill="#689F38" p-id="1237"></path><path d="M469.333333 256h85.333334v128h-85.333334zM469.333333 426.666667h85.333334v469.333333h-85.333334z" fill="#F44336" p-id="1238"></path><path d="M469.333333 384h85.333334v42.666667h-85.333334z" fill="#D32F2F" p-id="1239"></path><path d="M789.333333 640a21.333333 21.333333 0 1 1-21.333333-21.333333 21.333333 21.333333 0 0 1 21.333333 21.333333z m-21.333333-149.333333a21.333333 21.333333 0 1 0 21.333333 21.333333 21.333333 21.333333 0 0 0-21.333333-21.333333z m64-64a21.333333 21.333333 0 1 0 21.333333 21.333333 21.333333 21.333333 0 0 0-21.333333-21.333333z m0 256a21.333333 21.333333 0 1 0 21.333333 21.333333 21.333333 21.333333 0 0 0-21.333333-21.333333z m0-128a21.333333 21.333333 0 1 0 21.333333 21.333333 21.333333 21.333333 0 0 0-21.333333-21.333333z m0 256a21.333333 21.333333 0 1 0 21.333333 21.333333 21.333333 21.333333 0 0 0-21.333333-21.333333z m-64-64a21.333333 21.333333 0 1 0 21.333333 21.333333 21.333333 21.333333 0 0 0-21.333333-21.333333z m-128-128a21.333333 21.333333 0 1 0 21.333333 21.333333 21.333333 21.333333 0 0 0-21.333333-21.333333z m0-128a21.333333 21.333333 0 1 0 21.333333 21.333333 21.333333 21.333333 0 0 0-21.333333-21.333333z m64-64a21.333333 21.333333 0 1 0 21.333333 21.333333 21.333333 21.333333 0 0 0-21.333333-21.333333z m0 256a21.333333 21.333333 0 1 0 21.333333 21.333333 21.333333 21.333333 0 0 0-21.333333-21.333333z m0-128a21.333333 21.333333 0 1 0 21.333333 21.333333 21.333333 21.333333 0 0 0-21.333333-21.333333z m0 256a21.333333 21.333333 0 1 0 21.333333 21.333333 21.333333 21.333333 0 0 0-21.333333-21.333333z m-64-64a21.333333 21.333333 0 1 0 21.333333 21.333333 21.333333 21.333333 0 0 0-21.333333-21.333333z m-64-320a21.333333 21.333333 0 1 0 21.333333 21.333333 21.333333 21.333333 0 0 0-21.333333-21.333333z m0 256a21.333333 21.333333 0 1 0 21.333333 21.333333 21.333333 21.333333 0 0 0-21.333333-21.333333z m0-128a21.333333 21.333333 0 1 0 21.333333 21.333333 21.333333 21.333333 0 0 0-21.333333-21.333333z m0 256a21.333333 21.333333 0 1 0 21.333333 21.333333 21.333333 21.333333 0 0 0-21.333333-21.333333z m-192-192a21.333333 21.333333 0 1 0 21.333333 21.333333 21.333333 21.333333 0 0 0-21.333333-21.333333z m0-128a21.333333 21.333333 0 1 0 21.333333 21.333333 21.333333 21.333333 0 0 0-21.333333-21.333333z m64-64a21.333333 21.333333 0 1 0 21.333333 21.333333 21.333333 21.333333 0 0 0-21.333333-21.333333z m0 256a21.333333 21.333333 0 1 0 21.333333 21.333333 21.333333 21.333333 0 0 0-21.333333-21.333333z m0-128a21.333333 21.333333 0 1 0 21.333333 21.333333 21.333333 21.333333 0 0 0-21.333333-21.333333z m0 256a21.333333 21.333333 0 1 0 21.333333 21.333333 21.333333 21.333333 0 0 0-21.333333-21.333333z m-64-64a21.333333 21.333333 0 1 0 21.333333 21.333333 21.333333 21.333333 0 0 0-21.333333-21.333333z m-128-128a21.333333 21.333333 0 1 0 21.333333 21.333333 21.333333 21.333333 0 0 0-21.333333-21.333333z m0-128a21.333333 21.333333 0 1 0 21.333333 21.333333 21.333333 21.333333 0 0 0-21.333333-21.333333z m64-64a21.333333 21.333333 0 1 0 21.333333 21.333333 21.333333 21.333333 0 0 0-21.333333-21.333333z m0 256a21.333333 21.333333 0 1 0 21.333333 21.333333 21.333333 21.333333 0 0 0-21.333333-21.333333z m0-128a21.333333 21.333333 0 1 0 21.333333 21.333333 21.333333 21.333333 0 0 0-21.333333-21.333333z m0 256a21.333333 21.333333 0 1 0 21.333333 21.333333 21.333333 21.333333 0 0 0-21.333333-21.333333z m-64-64a21.333333 21.333333 0 1 0 21.333333 21.333333 21.333333 21.333333 0 0 0-21.333333-21.333333zM192 426.666667a21.333333 21.333333 0 1 0 21.333333 21.333333 21.333333 21.333333 0 0 0-21.333333-21.333333z m576-85.333334a21.333333 21.333333 0 1 0 21.333333 21.333334 21.333333 21.333333 0 0 0-21.333333-21.333334z m64-21.333333a21.333333 21.333333 0 1 0-21.333333-21.333333 21.333333 21.333333 0 0 0 21.333333 21.333333z m-192 21.333333a21.333333 21.333333 0 1 0 21.333333 21.333334 21.333333 21.333333 0 0 0-21.333333-21.333334z m64-64a21.333333 21.333333 0 1 0 21.333333 21.333334 21.333333 21.333333 0 0 0-21.333333-21.333334z m-128 0a21.333333 21.333333 0 1 0 21.333333 21.333334 21.333333 21.333333 0 0 0-21.333333-21.333334z m-192 64a21.333333 21.333333 0 1 0 21.333333 21.333334 21.333333 21.333333 0 0 0-21.333333-21.333334z m64-64a21.333333 21.333333 0 1 0 21.333333 21.333334 21.333333 21.333333 0 0 0-21.333333-21.333334z m-192 64a21.333333 21.333333 0 1 0 21.333333 21.333334 21.333333 21.333333 0 0 0-21.333333-21.333334z m64-64a21.333333 21.333333 0 1 0 21.333333 21.333334 21.333333 21.333333 0 0 0-21.333333-21.333334z m-128 0a21.333333 21.333333 0 1 0 21.333333 21.333334 21.333333 21.333333 0 0 0-21.333333-21.333334z m0 405.333334a21.333333 21.333333 0 1 0 21.333333 21.333333 21.333333 21.333333 0 0 0-21.333333-21.333333z m0-128a21.333333 21.333333 0 1 0 21.333333 21.333333 21.333333 21.333333 0 0 0-21.333333-21.333333z m0 256a21.333333 21.333333 0 1 0 21.333333 21.333333 21.333333 21.333333 0 0 0-21.333333-21.333333z" fill="#ABD47D" p-id="1240"></path></svg>