<?xml version="1.0" standalone="no"?><!DOCTYPE svg PUBLIC "-//W3C//DTD SVG 1.1//EN" "http://www.w3.org/Graphics/SVG/1.1/DTD/svg11.dtd"><svg t="1612443769521" class="icon" viewBox="0 0 1024 1024" version="1.1" xmlns="http://www.w3.org/2000/svg" p-id="5113" width="48" height="48" xmlns:xlink="http://www.w3.org/1999/xlink"><defs><style type="text/css"></style></defs><path d="M792.7 960.2H232.6c-22.1 0-40-17.9-40-40v-816c0-22.1 17.9-40 40-40h560.1c22.1 0 40 17.9 40 40v816c0 22.1-17.9 40-40 40z" fill="#CE302F" p-id="5114"></path><path d="M792.7 965.2H232.6c-24.8 0-45-20.2-45-45v-816c0-24.8 20.2-45 45-45h560.1c24.8 0 45 20.2 45 45v816c0 24.8-20.2 45-45 45z m-560.1-896c-19.3 0-35 15.7-35 35v816c0 19.3 15.7 35 35 35h560.1c19.3 0 35-15.7 35-35v-816c0-19.3-15.7-35-35-35H232.6z" fill="#333333" p-id="5115"></path><path d="M827.1 336.5S640 403.9 511.9 404.1c-125.7 0.2-313.3-67.6-313.3-67.6V87c0-12.6 9.4-22.7 21-22.7h586.5c11.6 0 21 10.2 21 22.7v249.5z" fill="#C12727" p-id="5116"></path><path d="M832.7 320.2s-190.6 63.4-321.1 63.6c-128 0.2-319.1-63.6-319.1-63.6V85.6c0-11.8 9.6-21.4 21.4-21.4h597.4c11.8 0 21.4 9.6 21.4 21.4v234.6z" fill="#CE302F" p-id="5117"></path><path d="M511 388.8c-127.3 0-318.1-63.2-320-63.8l-3.4-1.1V85.6c0-14.5 11.8-26.4 26.4-26.4h597.4c14.5 0 26.4 11.8 26.4 26.4v238.2l-3.4 1.1c-1.9 0.6-192.8 63.6-322.6 63.8-0.3 0.1-0.6 0.1-0.8 0.1z m-313.4-72.2c26.2 8.5 197.1 62.2 313.4 62.2h0.6c118.7-0.2 289.8-53.7 316.1-62.2v-231c0-9-7.3-16.4-16.4-16.4H214c-9 0-16.4 7.3-16.4 16.4v231z" fill="#333333" p-id="5118"></path><path d="M512.7 394.8m-97.1 0a97.1 97.1 0 1 0 194.2 0 97.1 97.1 0 1 0-194.2 0Z" fill="#C12727" p-id="5119"></path><path d="M512.7 383.8m-90.7 0a90.7 90.7 0 1 0 181.4 0 90.7 90.7 0 1 0-181.4 0Z" fill="#F8B739" p-id="5120"></path><path d="M512.7 479.5c-52.8 0-95.7-42.9-95.7-95.7s42.9-95.7 95.7-95.7c52.8 0 95.7 42.9 95.7 95.7s-43 95.7-95.7 95.7z m0-181.4c-47.2 0-85.7 38.4-85.7 85.7s38.4 85.7 85.7 85.7c47.2 0 85.7-38.4 85.7-85.7s-38.5-85.7-85.7-85.7z" fill="#333333" p-id="5121"></path><path d="M512.7 372.8m-74.3 0a74.3 74.3 0 1 0 148.6 0 74.3 74.3 0 1 0-148.6 0Z" fill="#F7B034" p-id="5122"></path></svg>