<?xml version="1.0" standalone="no"?><!DOCTYPE svg PUBLIC "-//W3C//DTD SVG 1.1//EN" "http://www.w3.org/Graphics/SVG/1.1/DTD/svg11.dtd"><svg t="1612448558011" class="icon" viewBox="0 0 1024 1024" version="1.1" xmlns="http://www.w3.org/2000/svg" p-id="6942" width="48" height="48" xmlns:xlink="http://www.w3.org/1999/xlink"><defs><style type="text/css"></style></defs><path d="M719.4 921.8H566.3c-5.6 0-10.9-2.3-14.7-6.5-3.8-4.1-5.7-9.6-5.2-15.2 0.2-1.9 0.4-3.7 0.6-5.3 0.2-1.6 0.4-3.2 0.4-4.2 0-62.7-51-113.6-113.6-113.6s-113.6 51-113.6 113.6c0 1 0.2 2.6 0.4 4.2s0.5 3.3 0.6 5.3c0.5 5.6-1.4 11.1-5.2 15.2-3.8 4.1-9.1 6.5-14.7 6.5H166.6c-35.6 0-64.5-29-64.5-64.5V712.4c0-11 9-20 20-20 62.7 0 113.6-51 113.6-113.6 0-62.7-51-113.6-113.6-113.6-11 0-20-9-20-20V304.4c0-35.6 29-64.5 64.5-64.5h120.1c9.9-77.5 76.2-137.6 156.3-137.6 80.1 0 146.4 60.1 156.3 137.6h120.1c35.6 0 64.5 29 64.5 64.5v120.1c77.5 9.9 137.6 76.2 137.6 156.3 0 80.1-60.1 146.4-137.6 156.3v120.1c0.1 35.6-28.9 64.6-64.5 64.6z m-132.2-40h132.2c13.5 0 24.5-11 24.5-24.5v-139c0-11 9-20 20-20 64.8 0 117.6-52.7 117.6-117.6 0-64.8-52.7-117.6-117.6-117.6-11 0-20-9-20-20V304.4c0-13.5-11-24.5-24.5-24.5H580.6c-11 0-20-9-20-20 0-64.8-52.7-117.6-117.6-117.6-64.8 0-117.6 52.7-117.6 117.6 0 11-9 20-20 20H166.6c-13.5 0-24.5 11-24.5 24.5v122.1c75.3 9.8 133.6 74.4 133.6 152.3s-58.3 142.5-133.6 152.3v126.1c0 13.5 11 24.5 24.5 24.5h113.9c4.6-80.6 71.6-144.8 153.4-144.8s148.7 64.2 153.3 144.9z" fill="#262626" p-id="6943"></path><path d="M511.8 611c-54.6 0-99-44.4-99-99s44.4-99 99-99 99 44.4 99 99-44.4 99-99 99z m0-158c-32.5 0-59 26.5-59 59s26.5 59 59 59 59-26.5 59-59-26.5-59-59-59z" fill="#F1571E" p-id="6944"></path></svg>